# xmcd CD database file
#
# Track frame offsets:
#	150
#	14045
#	24482
#	40332
#	53747
#	66465
#	79422
#	92570
#	106797
#	121847
#	133695
#	144810
#	162775
#
# Disc length: 2363 seconds
#
# Revision: 0
# Processed by: cddbd v1.4PL0 Copyright (c) Steve Scherf et al.
# Submitted via: CDex 1.50
#
DISCID=a809390d
DTITLE=Ralph Stanley and the Clinch Mountain Boys - Live in Japan Disc 1
DYEAR=1971
DGENRE=Country
TTITLE0=How Mountain Girls Can Love
TTITLE1=Leather Britches
TTITLE2=Sitting On Top Of The World 
TTITLE3=Love Me Darling Just Tonight
TTITLE4=Clinch Mountain Backstep 
TTITLE5=Uncle Pen
TTITLE6=Memories Of Mother
TTITLE7=Little Maggie
TTITLE8=Listen To The Mockingbird
TTITLE9=Ridin' That Midnight Train
TTITLE10=Baby Girl
TTITLE11=Sourwood Mountain
TTITLE12=I Saw The Light
EXTD=YEAR: 1971
EXTT0=
EXTT1=
EXTT2=
EXTT3=
EXTT4=
EXTT5=
EXTT6=
EXTT7=
EXTT8=
EXTT9=
EXTT10=
EXTT11=
EXTT12=
PLAYORDER=
